<svg width="385" height="185" viewBox="0 0 385 185" fill="none" xmlns="http://www.w3.org/2000/svg">
<g clip-path="url(#clip0_228_1945)">
<rect width="185" height="385" transform="matrix(0 -1 1 0 0 185)" fill="#61CCC0"/>
<g clip-path="url(#clip1_228_1945)">
<mask id="mask0_228_1945" style="mask-type:luminance" maskUnits="userSpaceOnUse" x="84" y="42" width="217" height="101">
<path d="M301 42H84V143H301V42Z" fill="white"/>
</mask>
<g mask="url(#mask0_228_1945)">
<path d="M103.664 137.108C98.2011 137.108 94.5091 136.038 92.5878 133.899C90.7041 131.725 89.7623 128.411 89.7623 123.957V74.7723H84.0547V60.4114H89.7623V43.6831H109.428V60.4114H115.135V74.7723H109.428V119.538C109.428 120.836 109.654 121.748 110.106 122.274C110.558 122.8 111.425 123.063 112.705 123.063C113.61 123.063 114.42 122.992 115.135 122.852V135.688C114.683 135.828 113.271 136.091 110.897 136.477C108.524 136.898 106.113 137.108 103.664 137.108ZM145.369 137.108C139.34 137.108 134.537 136.056 130.958 133.952C127.379 131.848 124.818 128.814 123.273 124.851C121.728 120.888 120.956 116.119 120.956 110.543V78.823C120.956 71.4931 123.216 65.9523 127.737 62.1998C132.258 58.4123 138.474 56.5182 146.386 56.5182C162.661 56.5182 170.798 63.9531 170.798 78.823V84.5565C170.798 91.5005 170.723 96.1647 170.572 98.549H141.186V113.805C141.186 115.207 141.281 116.592 141.469 117.96C141.658 119.293 142.072 120.397 142.713 121.274C143.39 122.151 144.465 122.59 145.934 122.59C148.044 122.59 149.362 121.748 149.89 120.065C150.417 118.346 150.681 116.119 150.681 113.384V105.809H170.798V110.28C170.798 116.171 170.007 121.116 168.425 125.115C166.88 129.077 164.243 132.076 160.513 134.11C156.821 136.109 151.773 137.108 145.369 137.108ZM141.074 89.1856H150.681V78.5598C150.681 75.719 150.304 73.6848 149.55 72.4573C148.797 71.1948 147.667 70.5639 146.16 70.5639C144.54 70.5639 143.278 71.1598 142.373 72.3523C141.507 73.5448 141.074 75.6139 141.074 78.5598V89.1856ZM193.572 137.108C188.863 137.108 185.265 136.091 182.778 134.057C180.33 132.023 178.653 129.235 177.749 125.693C176.845 122.151 176.392 118.136 176.392 113.646C176.392 108.842 176.902 104.915 177.919 101.863C178.936 98.7773 180.669 96.2523 183.117 94.2881C185.604 92.3247 189.013 90.6589 193.346 89.2907L205.891 85.2931V77.1922C205.891 72.9489 204.403 70.8265 201.427 70.8265C198.715 70.8265 197.358 72.5455 197.358 75.9822V80.7164H177.692C177.655 80.4357 177.636 80.0849 177.636 79.6647C177.636 79.2082 177.636 78.6998 177.636 78.1389C177.636 70.2831 179.614 64.7248 183.569 61.4631C187.563 58.1665 193.873 56.5182 202.5 56.5182C207.021 56.5182 211.071 57.2723 214.65 58.7806C218.229 60.2532 221.055 62.4455 223.127 65.3564C225.236 68.2665 226.292 71.8614 226.292 76.1398V136.266H206.174V126.903C205.194 130.2 203.574 132.725 201.314 134.478C199.053 136.231 196.473 137.108 193.572 137.108ZM201.54 122.484C203.198 122.484 204.328 121.836 204.931 120.538C205.533 119.241 205.835 117.837 205.835 116.33V94.3407C203.047 95.3931 200.881 96.7256 199.336 98.3389C197.792 99.9172 197.019 102.249 197.019 105.335V115.488C197.019 120.152 198.526 122.484 201.54 122.484ZM234.09 136.266V43.6831H254.66V136.266H234.09Z" fill="white"/>
<path d="M280.265 137.415C276.464 137.415 273.202 136.147 270.478 133.612C267.756 131.078 266.395 128.041 266.395 124.502C266.395 120.964 267.756 117.927 270.478 115.393C273.202 112.858 276.464 111.59 280.265 111.59C284.067 111.59 287.329 112.858 290.052 115.393C292.775 117.927 294.136 120.964 294.136 124.502C294.136 126.846 293.494 128.998 292.21 130.958C290.976 132.919 289.307 134.497 287.201 135.693C285.146 136.84 282.834 137.415 280.265 137.415Z" fill="white"/>
</g>
</g>
</g>
<defs>
<clipPath id="clip0_228_1945">
<rect width="185" height="385" fill="white" transform="matrix(0 -1 1 0 0 185)"/>
</clipPath>
<clipPath id="clip1_228_1945">
<rect width="217" height="101" fill="white" transform="translate(84 42)"/>
</clipPath>
</defs>
</svg>
